<svg id="Layer_1" data-name="Layer 1" xmlns="http://www.w3.org/2000/svg" viewBox="0 0 1080 1080"><defs><style>.cls-1{fill:#6199d1;}.cls-2{fill:#fdb813;}.cls-3{fill:#ed1c24;}.cls-4{fill:#e25425;}</style></defs><title>Alertraa Logo-01-</title><path class="cls-1" d="M508.07824,601.9748v.25252H409.28061v-.0819h-11.1725V547.37531H415.7643v33.10094h61.13084c-10.21708-33.89949-43.72059-58.76952-83.47584-58.76952-39.76193,0-73.26543,24.87-83.47585,58.76952h63.165V547.37531H390.7713v54.77011H376.86216v.0819H277.39537v-.25252a100.31071,100.31071,0,0,1,2.32074-21.49855c10.715-48.87336,57.2405-85.653,113.02069-85.653,55.77353,0,102.30607,36.7796,113.021,85.653A100.33163,100.33163,0,0,1,508.07824,601.9748Z"/><polygon class="cls-2" points="402.048 485.864 374.474 482.966 373.18 436.508 412.293 440.619 402.048 485.864"/><polygon class="cls-3" points="301.765 517.956 286.26 540.942 244.633 520.273 266.625 487.668 301.765 517.956"/><polygon class="cls-4" points="348.489 489.165 323.784 501.752 297.397 463.493 332.439 445.639 348.489 489.165"/></svg>